<mxfile host="app.diagrams.net" agent="Mozilla/5.0 (Windows NT 10.0; Win64; x64) AppleWebKit/537.36 (KHTML, like Gecko) Chrome/141.0.0.0 Safari/537.36" version="28.2.7">
  <diagram name="Strona-1" id="t3EnouX5sOmhS8-DlvLP">
    <mxGraphModel dx="1489" dy="814" grid="1" gridSize="10" guides="1" tooltips="1" connect="1" arrows="1" fold="1" page="1" pageScale="1" pageWidth="827" pageHeight="1169" math="0" shadow="0">
      <root>
        <mxCell id="0" />
        <mxCell id="1" parent="0" />
        <mxCell id="q24DFJx1I0Eo2yyB0KhQ-12" style="edgeStyle=orthogonalEdgeStyle;rounded=0;orthogonalLoop=1;jettySize=auto;html=1;exitX=0.5;exitY=1;exitDx=0;exitDy=0;exitPerimeter=0;entryX=0.5;entryY=0;entryDx=0;entryDy=0;" parent="1" source="q24DFJx1I0Eo2yyB0KhQ-2" target="q24DFJx1I0Eo2yyB0KhQ-5" edge="1">
          <mxGeometry relative="1" as="geometry" />
        </mxCell>
        <mxCell id="q24DFJx1I0Eo2yyB0KhQ-2" value="" style="strokeWidth=2;html=1;shape=mxgraph.flowchart.start_1;whiteSpace=wrap;" parent="1" vertex="1">
          <mxGeometry x="323" y="130" width="97" height="50" as="geometry" />
        </mxCell>
        <mxCell id="q24DFJx1I0Eo2yyB0KhQ-1" value="&lt;font style=&quot;font-size: 20px;&quot;&gt;Start&lt;/font&gt;" style="text;strokeColor=none;fillColor=none;html=1;fontSize=24;fontStyle=1;verticalAlign=middle;align=center;fontFamily=Montserrat;fontSource=https%3A%2F%2Ffonts.googleapis.com%2Fcss%3Ffamily%3DMontserrat;" parent="1" vertex="1">
          <mxGeometry x="351.5" y="145" width="40" height="20" as="geometry" />
        </mxCell>
        <mxCell id="OPxS4aKcs3Opd_LOz3XT-7" style="edgeStyle=orthogonalEdgeStyle;rounded=0;orthogonalLoop=1;jettySize=auto;html=1;exitX=0.5;exitY=1;exitDx=0;exitDy=0;entryX=0.5;entryY=0;entryDx=0;entryDy=0;" edge="1" parent="1" source="q24DFJx1I0Eo2yyB0KhQ-5" target="OPxS4aKcs3Opd_LOz3XT-6">
          <mxGeometry relative="1" as="geometry" />
        </mxCell>
        <mxCell id="q24DFJx1I0Eo2yyB0KhQ-5" value="" style="shape=parallelogram;html=1;strokeWidth=2;perimeter=parallelogramPerimeter;whiteSpace=wrap;rounded=1;arcSize=12;size=0.23;" parent="1" vertex="1">
          <mxGeometry x="303.19" y="255" width="136.62" height="55" as="geometry" />
        </mxCell>
        <UserObject label="&lt;font style=&quot;font-size: 14px;&quot; face=&quot;Montserrat&quot;&gt;Podaj a, b&lt;/font&gt;" placeholders="1" name="Variable" id="q24DFJx1I0Eo2yyB0KhQ-20">
          <mxCell style="text;html=1;strokeColor=none;fillColor=none;align=center;verticalAlign=middle;whiteSpace=wrap;overflow=hidden;" parent="1" vertex="1">
            <mxGeometry x="313.46999999999997" y="270" width="118.5" height="25" as="geometry" />
          </mxCell>
        </UserObject>
        <mxCell id="OPxS4aKcs3Opd_LOz3XT-29" style="edgeStyle=orthogonalEdgeStyle;rounded=0;orthogonalLoop=1;jettySize=auto;html=1;exitX=0.5;exitY=1;exitDx=0;exitDy=0;entryX=0.5;entryY=0;entryDx=0;entryDy=0;" edge="1" parent="1" source="OPxS4aKcs3Opd_LOz3XT-6" target="OPxS4aKcs3Opd_LOz3XT-24">
          <mxGeometry relative="1" as="geometry" />
        </mxCell>
        <mxCell id="OPxS4aKcs3Opd_LOz3XT-55" style="edgeStyle=orthogonalEdgeStyle;rounded=0;orthogonalLoop=1;jettySize=auto;html=1;exitX=0.5;exitY=1;exitDx=0;exitDy=0;entryX=0.5;entryY=0;entryDx=0;entryDy=0;" edge="1" parent="1" source="OPxS4aKcs3Opd_LOz3XT-6" target="OPxS4aKcs3Opd_LOz3XT-12">
          <mxGeometry relative="1" as="geometry" />
        </mxCell>
        <mxCell id="OPxS4aKcs3Opd_LOz3XT-6" value="" style="rhombus;whiteSpace=wrap;html=1;" vertex="1" parent="1">
          <mxGeometry x="311.04" y="372.5" width="120.93" height="107.5" as="geometry" />
        </mxCell>
        <UserObject label="&lt;font style=&quot;font-size: 14px;&quot; face=&quot;Montserrat&quot;&gt;a == 0&lt;/font&gt;" placeholders="1" name="Variable" id="OPxS4aKcs3Opd_LOz3XT-8">
          <mxCell style="text;html=1;strokeColor=none;fillColor=none;align=center;verticalAlign=middle;whiteSpace=wrap;overflow=hidden;" vertex="1" parent="1">
            <mxGeometry x="313" y="390" width="118.5" height="25" as="geometry" />
          </mxCell>
        </UserObject>
        <UserObject label="&lt;font style=&quot;font-size: 14px;&quot; face=&quot;Montserrat&quot;&gt;b == 0&lt;/font&gt;" placeholders="1" name="Variable" id="OPxS4aKcs3Opd_LOz3XT-9">
          <mxCell style="text;html=1;strokeColor=none;fillColor=none;align=center;verticalAlign=middle;whiteSpace=wrap;overflow=hidden;" vertex="1" parent="1">
            <mxGeometry x="312.25" y="430" width="118.5" height="25" as="geometry" />
          </mxCell>
        </UserObject>
        <UserObject label="&lt;font style=&quot;font-size: 14px;&quot; face=&quot;Montserrat&quot;&gt;i&lt;/font&gt;" placeholders="1" name="Variable" id="OPxS4aKcs3Opd_LOz3XT-10">
          <mxCell style="text;html=1;strokeColor=none;fillColor=none;align=center;verticalAlign=middle;whiteSpace=wrap;overflow=hidden;" vertex="1" parent="1">
            <mxGeometry x="364.22" y="415" width="17" height="20" as="geometry" />
          </mxCell>
        </UserObject>
        <mxCell id="OPxS4aKcs3Opd_LOz3XT-12" value="" style="shape=parallelogram;html=1;strokeWidth=2;perimeter=parallelogramPerimeter;whiteSpace=wrap;rounded=1;arcSize=12;size=0.23;" vertex="1" parent="1">
          <mxGeometry x="40" y="520" width="200" height="70" as="geometry" />
        </mxCell>
        <UserObject label="&lt;font style=&quot;font-size: 16px;&quot; face=&quot;Montserrat&quot;&gt;Tak&lt;/font&gt;" placeholders="1" name="Variable" id="OPxS4aKcs3Opd_LOz3XT-16">
          <mxCell style="text;html=1;strokeColor=none;fillColor=none;align=center;verticalAlign=middle;whiteSpace=wrap;overflow=hidden;" vertex="1" parent="1">
            <mxGeometry x="220" y="470" width="118.5" height="25" as="geometry" />
          </mxCell>
        </UserObject>
        <UserObject label="&lt;font data-font-src=&quot;https://fonts.googleapis.com/css?family=Montserrat&quot; face=&quot;Montserrat&quot;&gt;Wyświetl: &quot;Równanie tożsamościowe&quot;&lt;/font&gt;" placeholders="1" name="Variable" id="OPxS4aKcs3Opd_LOz3XT-18">
          <mxCell style="text;html=1;strokeColor=none;fillColor=none;align=center;verticalAlign=middle;whiteSpace=wrap;overflow=hidden;" vertex="1" parent="1">
            <mxGeometry x="80" y="523.75" width="130" height="62.5" as="geometry" />
          </mxCell>
        </UserObject>
        <mxCell id="OPxS4aKcs3Opd_LOz3XT-32" style="edgeStyle=orthogonalEdgeStyle;rounded=0;orthogonalLoop=1;jettySize=auto;html=1;exitX=0.5;exitY=1;exitDx=0;exitDy=0;entryX=0.5;entryY=0;entryDx=0;entryDy=0;" edge="1" parent="1" source="OPxS4aKcs3Opd_LOz3XT-24" target="OPxS4aKcs3Opd_LOz3XT-31">
          <mxGeometry relative="1" as="geometry" />
        </mxCell>
        <mxCell id="OPxS4aKcs3Opd_LOz3XT-45" style="edgeStyle=orthogonalEdgeStyle;rounded=0;orthogonalLoop=1;jettySize=auto;html=1;exitX=0.5;exitY=1;exitDx=0;exitDy=0;entryX=0.5;entryY=0;entryDx=0;entryDy=0;" edge="1" parent="1" source="OPxS4aKcs3Opd_LOz3XT-24" target="OPxS4aKcs3Opd_LOz3XT-39">
          <mxGeometry relative="1" as="geometry" />
        </mxCell>
        <mxCell id="OPxS4aKcs3Opd_LOz3XT-24" value="" style="rhombus;whiteSpace=wrap;html=1;" vertex="1" parent="1">
          <mxGeometry x="499.25" y="520" width="80" height="80" as="geometry" />
        </mxCell>
        <UserObject label="&lt;font style=&quot;font-size: 14px;&quot; face=&quot;Montserrat&quot;&gt;a == 0&lt;/font&gt;" placeholders="1" name="Variable" id="OPxS4aKcs3Opd_LOz3XT-25">
          <mxCell style="text;html=1;strokeColor=none;fillColor=none;align=center;verticalAlign=middle;whiteSpace=wrap;overflow=hidden;" vertex="1" parent="1">
            <mxGeometry x="480" y="547.5" width="118.5" height="25" as="geometry" />
          </mxCell>
        </UserObject>
        <UserObject label="&lt;font style=&quot;font-size: 16px;&quot; face=&quot;Montserrat&quot;&gt;Nie&lt;/font&gt;" placeholders="1" name="Variable" id="OPxS4aKcs3Opd_LOz3XT-28">
          <mxCell style="text;html=1;strokeColor=none;fillColor=none;align=center;verticalAlign=middle;whiteSpace=wrap;overflow=hidden;" vertex="1" parent="1">
            <mxGeometry x="400" y="470" width="118.5" height="25" as="geometry" />
          </mxCell>
        </UserObject>
        <mxCell id="OPxS4aKcs3Opd_LOz3XT-30" value="" style="shape=parallelogram;html=1;strokeWidth=2;perimeter=parallelogramPerimeter;whiteSpace=wrap;rounded=1;arcSize=12;size=0.23;" vertex="1" parent="1">
          <mxGeometry x="579.25" y="650" width="200" height="70" as="geometry" />
        </mxCell>
        <UserObject label="&lt;font data-font-src=&quot;https://fonts.googleapis.com/css?family=Montserrat&quot; face=&quot;Montserrat&quot;&gt;Wyświetl: &quot;Równanie sprzeczne&quot;&lt;/font&gt;" placeholders="1" name="Variable" id="OPxS4aKcs3Opd_LOz3XT-31">
          <mxCell style="text;html=1;strokeColor=none;fillColor=none;align=center;verticalAlign=middle;whiteSpace=wrap;overflow=hidden;" vertex="1" parent="1">
            <mxGeometry x="619.25" y="653.75" width="130" height="62.5" as="geometry" />
          </mxCell>
        </UserObject>
        <UserObject label="&lt;font style=&quot;font-size: 16px;&quot; face=&quot;Montserrat&quot;&gt;Tak&lt;/font&gt;" placeholders="1" name="Variable" id="OPxS4aKcs3Opd_LOz3XT-33">
          <mxCell style="text;html=1;strokeColor=none;fillColor=none;align=center;verticalAlign=middle;whiteSpace=wrap;overflow=hidden;" vertex="1" parent="1">
            <mxGeometry x="540" y="600" width="118.5" height="25" as="geometry" />
          </mxCell>
        </UserObject>
        <mxCell id="OPxS4aKcs3Opd_LOz3XT-51" style="edgeStyle=orthogonalEdgeStyle;rounded=0;orthogonalLoop=1;jettySize=auto;html=1;exitX=0.5;exitY=1;exitDx=0;exitDy=0;entryX=0.5;entryY=0;entryDx=0;entryDy=0;" edge="1" parent="1" source="OPxS4aKcs3Opd_LOz3XT-39" target="OPxS4aKcs3Opd_LOz3XT-50">
          <mxGeometry relative="1" as="geometry" />
        </mxCell>
        <mxCell id="OPxS4aKcs3Opd_LOz3XT-39" value="" style="rounded=1;whiteSpace=wrap;html=1;" vertex="1" parent="1">
          <mxGeometry x="303.19" y="653.75" width="120" height="46.25" as="geometry" />
        </mxCell>
        <UserObject label="&lt;font style=&quot;font-size: 16px;&quot; face=&quot;Montserrat&quot;&gt;Nie&lt;/font&gt;" placeholders="1" name="Variable" id="OPxS4aKcs3Opd_LOz3XT-46">
          <mxCell style="text;html=1;strokeColor=none;fillColor=none;align=center;verticalAlign=middle;whiteSpace=wrap;overflow=hidden;" vertex="1" parent="1">
            <mxGeometry x="414" y="600" width="118.5" height="25" as="geometry" />
          </mxCell>
        </UserObject>
        <UserObject label="&lt;font style=&quot;font-size: 14px;&quot; face=&quot;Montserrat&quot;&gt;Wynik: -b / a&lt;/font&gt;" placeholders="1" name="Variable" id="OPxS4aKcs3Opd_LOz3XT-47">
          <mxCell style="text;html=1;strokeColor=none;fillColor=none;align=center;verticalAlign=middle;whiteSpace=wrap;overflow=hidden;" vertex="1" parent="1">
            <mxGeometry x="301.5" y="664.38" width="118.5" height="25" as="geometry" />
          </mxCell>
        </UserObject>
        <mxCell id="OPxS4aKcs3Opd_LOz3XT-49" value="" style="shape=parallelogram;html=1;strokeWidth=2;perimeter=parallelogramPerimeter;whiteSpace=wrap;rounded=1;arcSize=12;size=0.23;" vertex="1" parent="1">
          <mxGeometry x="288.19" y="753.75" width="150" height="50" as="geometry" />
        </mxCell>
        <UserObject label="&lt;font data-font-src=&quot;https://fonts.googleapis.com/css?family=Montserrat&quot; face=&quot;Montserrat&quot;&gt;Wyświetl wynik&lt;/font&gt;" placeholders="1" name="Variable" id="OPxS4aKcs3Opd_LOz3XT-50">
          <mxCell style="text;html=1;strokeColor=none;fillColor=none;align=center;verticalAlign=middle;whiteSpace=wrap;overflow=hidden;" vertex="1" parent="1">
            <mxGeometry x="298.19" y="747.5" width="130" height="62.5" as="geometry" />
          </mxCell>
        </UserObject>
        <mxCell id="OPxS4aKcs3Opd_LOz3XT-52" value="" style="strokeWidth=2;html=1;shape=mxgraph.flowchart.start_1;whiteSpace=wrap;" vertex="1" parent="1">
          <mxGeometry x="314.69" y="870" width="97" height="50" as="geometry" />
        </mxCell>
        <mxCell id="OPxS4aKcs3Opd_LOz3XT-53" value="&lt;font style=&quot;font-size: 20px;&quot;&gt;Stop&lt;/font&gt;" style="text;strokeColor=none;fillColor=none;html=1;fontSize=24;fontStyle=1;verticalAlign=middle;align=center;fontFamily=Montserrat;fontSource=https%3A%2F%2Ffonts.googleapis.com%2Fcss%3Ffamily%3DMontserrat;" vertex="1" parent="1">
          <mxGeometry x="343.19" y="885" width="40" height="20" as="geometry" />
        </mxCell>
        <mxCell id="OPxS4aKcs3Opd_LOz3XT-54" style="edgeStyle=orthogonalEdgeStyle;rounded=0;orthogonalLoop=1;jettySize=auto;html=1;exitX=0.5;exitY=1;exitDx=0;exitDy=0;entryX=0.5;entryY=0;entryDx=0;entryDy=0;entryPerimeter=0;" edge="1" parent="1" source="OPxS4aKcs3Opd_LOz3XT-50" target="OPxS4aKcs3Opd_LOz3XT-52">
          <mxGeometry relative="1" as="geometry" />
        </mxCell>
        <mxCell id="OPxS4aKcs3Opd_LOz3XT-57" style="edgeStyle=orthogonalEdgeStyle;rounded=0;orthogonalLoop=1;jettySize=auto;html=1;exitX=0.5;exitY=1;exitDx=0;exitDy=0;entryX=0;entryY=0.5;entryDx=0;entryDy=0;entryPerimeter=0;" edge="1" parent="1" source="OPxS4aKcs3Opd_LOz3XT-18" target="OPxS4aKcs3Opd_LOz3XT-52">
          <mxGeometry relative="1" as="geometry" />
        </mxCell>
        <mxCell id="OPxS4aKcs3Opd_LOz3XT-58" style="edgeStyle=orthogonalEdgeStyle;rounded=0;orthogonalLoop=1;jettySize=auto;html=1;exitX=0.5;exitY=1;exitDx=0;exitDy=0;entryX=1;entryY=0.5;entryDx=0;entryDy=0;entryPerimeter=0;" edge="1" parent="1" source="OPxS4aKcs3Opd_LOz3XT-31" target="OPxS4aKcs3Opd_LOz3XT-52">
          <mxGeometry relative="1" as="geometry" />
        </mxCell>
      </root>
    </mxGraphModel>
  </diagram>
</mxfile>
